<?xml version="1.0" standalone="no"?>
<!DOCTYPE svg PUBLIC "-//W3C//DTD SVG 20010904//EN"
 "http://www.w3.org/TR/2001/REC-SVG-20010904/DTD/svg10.dtd">
<svg version="1.0" xmlns="http://www.w3.org/2000/svg"
 width="117.000000pt" height="118.000000pt" viewBox="0 0 117.000000 118.000000"
 preserveAspectRatio="xMidYMid meet">

<g transform="translate(0.000000,118.000000) scale(0.100000,-0.100000)"
fill="#000000" stroke="none">
<path d="M115 1166 c-42 -18 -103 -89 -110 -128 -4 -19 -5 -50 -3 -70 l3 -36
99 90 c55 49 108 94 119 100 19 10 20 8 13 -31 -3 -22 -9 -60 -13 -83 l-6 -43
45 37 c49 40 95 65 104 56 3 -3 -2 -39 -10 -79 -14 -68 -14 -74 4 -108 54
-107 154 -161 310 -169 86 -4 242 14 294 34 25 10 20 -25 -14 -93 -33 -67 -90
-125 -164 -168 -42 -25 -54 -27 -114 -23 -74 5 -174 46 -195 79 -6 10 -18 19
-25 19 -21 0 11 -51 61 -97 28 -26 62 -46 89 -53 23 -6 48 -12 53 -14 6 -1 -5
-11 -24 -20 -23 -12 -67 -20 -135 -24 -108 -6 -97 0 -159 -76 -28 -35 -28 -35
-170 66 -58 41 -107 85 -122 108 -34 54 -45 58 -45 17 0 -94 37 -147 153 -223
40 -26 76 -51 81 -55 11 -9 -69 -96 -107 -116 -16 -8 -38 -12 -49 -10 -31 8 0
-23 39 -40 49 -20 537 -19 618 2 200 51 357 207 410 405 19 72 19 268 0 340
-53 198 -210 354 -410 405 -80 20 -574 21 -620 1z m943 -342 c2 -11 -6 -31
-16 -44 -35 -44 -69 -1 -41 51 14 26 53 22 57 -7z"/>
<path d="M257 803 c-4 -3 -7 -17 -7 -30 0 -18 5 -23 25 -23 17 0 25 5 25 18 0
28 -28 51 -43 35z"/>
</g>
</svg>
